<svg width="87" height="110" viewBox="0 0 87 110" fill="none" xmlns="http://www.w3.org/2000/svg">
<path d="M15.6422 104.324H5.89819L3.88219 109H0.242188L9.25819 89.064H12.1982L21.2422 109H17.6302L15.6422 104.324ZM14.4382 101.524L10.7702 92.984L7.10219 101.524H14.4382ZM29.5582 109.224C28.0835 109.224 26.8049 108.925 25.7222 108.328C24.6395 107.731 23.8089 106.891 23.2302 105.808C22.6515 104.707 22.3622 103.419 22.3622 101.944C22.3622 100.469 22.6609 99.172 23.2582 98.052C23.8742 96.932 24.7329 96.064 25.8342 95.448C26.9542 94.8133 28.2422 94.496 29.6982 94.496C30.7062 94.496 31.6769 94.6547 32.6102 94.972C33.5622 95.2893 34.3182 95.728 34.8782 96.288L33.8982 98.752C33.3009 98.2667 32.6662 97.9027 31.9942 97.66C31.3222 97.3987 30.6595 97.268 30.0062 97.268C28.7369 97.268 27.7475 97.6693 27.0382 98.472C26.3289 99.256 25.9742 100.395 25.9742 101.888C25.9742 103.381 26.3195 104.52 27.0102 105.304C27.7195 106.088 28.7182 106.48 30.0062 106.48C30.6595 106.48 31.3222 106.349 31.9942 106.088C32.6662 105.827 33.3009 105.453 33.8982 104.968L34.8782 107.432C34.2809 107.992 33.5062 108.431 32.5542 108.748C31.6022 109.065 30.6035 109.224 29.5582 109.224ZM41.7623 97.492V103.82C41.7623 105.481 42.5369 106.312 44.0863 106.312C44.5156 106.312 44.9823 106.237 45.4863 106.088V108.86C44.8703 109.084 44.1236 109.196 43.2463 109.196C41.6409 109.196 40.4089 108.748 39.5503 107.852C38.6916 106.956 38.2623 105.668 38.2623 103.988V97.492H35.5463V94.86H38.2623V91.416L41.7623 90.24V94.86H45.5143V97.492H41.7623ZM47.9196 94.86H51.3916V109H47.9196V94.86ZM51.5876 88.448V91.892H47.6956V88.448H51.5876ZM61.6324 109.224C60.1951 109.224 58.9257 108.925 57.8244 108.328C56.7417 107.731 55.9017 106.881 55.3044 105.78C54.7257 104.66 54.4364 103.353 54.4364 101.86C54.4364 100.367 54.7257 99.0693 55.3044 97.968C55.9017 96.848 56.7417 95.9893 57.8244 95.392C58.9257 94.7947 60.1951 94.496 61.6324 94.496C63.0511 94.496 64.3017 94.7947 65.3844 95.392C66.4671 95.9893 67.2977 96.848 67.8764 97.968C68.4737 99.0693 68.7724 100.367 68.7724 101.86C68.7724 103.353 68.4737 104.66 67.8764 105.78C67.2977 106.881 66.4671 107.731 65.3844 108.328C64.3017 108.925 63.0511 109.224 61.6324 109.224ZM61.6044 106.48C62.7991 106.48 63.7044 106.097 64.3204 105.332C64.9551 104.548 65.2724 103.391 65.2724 101.86C65.2724 100.348 64.9551 99.2 64.3204 98.416C63.6857 97.6133 62.7897 97.212 61.6324 97.212C60.4564 97.212 59.5511 97.6133 58.9164 98.416C58.2817 99.2 57.9644 100.348 57.9644 101.86C57.9644 103.391 58.2724 104.548 58.8884 105.332C59.5231 106.097 60.4284 106.48 61.6044 106.48ZM79.8827 94.496C83.2614 94.496 84.9507 96.4373 84.9507 100.32V109H81.4507V100.488C81.4507 99.368 81.2361 98.556 80.8067 98.052C80.3774 97.5293 79.7147 97.268 78.8187 97.268C77.7547 97.268 76.8961 97.6133 76.2427 98.304C75.5894 98.976 75.2627 99.872 75.2627 100.992V109H71.7907V98.864C71.7907 97.3707 71.7161 96.036 71.5667 94.86H74.8427L75.0947 97.184C75.5801 96.3253 76.2334 95.6627 77.0547 95.196C77.8947 94.7293 78.8374 94.496 79.8827 94.496Z" fill="white"/>
<path d="M13.0171 50.0132L14.2671 57.5132C14.3199 57.8302 14.4929 58.1148 14.75 58.3077L24.4375 65.5733L25.5641 68.953C25.6471 69.2019 25.8062 69.4184 26.0191 69.5718C26.2319 69.7252 26.4877 69.8077 26.75 69.8077C26.8191 69.8076 26.8881 69.8019 26.9563 69.7906L27.5555 69.6907L26.815 71.9122C26.7722 72.0397 26.7503 72.1732 26.75 72.3077V76.0577C26.75 76.3892 26.8817 76.7072 27.1161 76.9416C27.3506 77.176 27.6685 77.3077 28 77.3077H58C58.1902 77.3077 58.3778 77.2643 58.5486 77.1809C58.7195 77.0974 58.869 76.9761 58.9859 76.8261C59.1028 76.6762 59.1839 76.5015 59.2232 76.3155C59.2624 76.1294 59.2586 75.9369 59.2122 75.7525L58.4586 72.7596L66.1305 77.143C66.4054 77.3001 66.7297 77.347 67.0378 77.2742C67.3459 77.2015 67.615 77.0145 67.7907 76.7511C67.7907 76.7511 70.3921 72.8167 70.4044 72.7868C70.4092 72.7753 71.7133 67.6108 71.7133 67.6108C71.7823 67.3349 71.7551 67.0438 71.6363 66.7854C71.5174 66.527 71.3141 66.3169 71.0597 66.1897L68.5597 64.9397C68.325 64.8224 68.0594 64.7819 67.8004 64.824C67.5414 64.866 67.3022 64.9885 67.1167 65.1741C67.1167 65.1741 64.3894 67.9611 64.3288 68.1257L61.2894 66.4272L66.4349 60.6383C66.6099 60.4415 66.7182 60.1944 66.7444 59.9324L67.9944 47.4324C68.0067 47.309 68.0007 47.1845 67.9764 47.0628L66.0196 37.2786C65.6335 35.3483 64.7074 33.5673 63.349 32.1427C61.9905 30.718 60.2556 29.7083 58.3458 29.231L55.8517 28.6074L48.8871 26.2858L48 24.5125V22.6202L48.75 22.0577C48.9053 21.9413 49.0313 21.7903 49.1181 21.6167C49.2048 21.4431 49.25 21.2517 49.25 21.0577V18.5577C49.5816 18.5577 49.8995 18.426 50.1339 18.1916C50.3683 17.9571 50.5 17.6392 50.5 17.3077V12.5039C51.3286 9.95271 51.7504 7.28696 51.75 4.60456V3.55769C51.75 3.22616 51.6183 2.90822 51.3839 2.6738C51.1495 2.43938 50.8316 2.30769 50.5 2.30769H44.0355C41.5114 2.30067 39.0835 3.27597 37.2657 5.02722L35.2361 6.04206C34.1886 6.56582 33.3076 7.37095 32.6919 8.36721C32.0762 9.36347 31.75 10.5115 31.75 11.6827C31.75 12.8539 32.0762 14.0019 32.6919 14.9982C33.3076 15.9944 34.1886 16.7995 35.2361 17.3233L35.5103 17.4603C35.5476 17.763 35.6942 18.0416 35.9225 18.2437C36.1508 18.4458 36.4451 18.5575 36.75 18.5577V21.0577C36.75 21.2517 36.7952 21.4431 36.882 21.6167C36.9688 21.7903 37.0948 21.9413 37.25 22.0577L38 22.6202V24.5125L37.0946 26.3233L31.5092 28.5577H30.691C27.8385 28.5577 25.0785 29.5696 22.902 31.4134C20.7254 33.2571 19.2735 35.8132 18.8046 38.6269L18.0702 43.0311L13.2739 49.0264C13.1642 49.1636 13.0846 49.3224 13.0403 49.4924C12.9961 49.6624 12.9881 49.8399 13.0171 50.0132ZM29.25 72.5108L30.3449 69.2261L34.4555 68.5411C34.6796 68.5038 34.8893 68.406 35.062 68.2584C35.2348 68.1108 35.364 67.9189 35.4358 67.7033L36.2666 65.211L45.4475 68.8828L44.46 70.3641C44.2864 70.6243 44.2167 70.9402 44.2646 71.2493C44.3125 71.5584 44.4746 71.8383 44.7188 72.0338L48.1866 74.8077H29.25V72.5108ZM30.8841 45.4574L31.4186 49.735L28.7269 48.2308L30.8841 45.4574ZM41.25 36.3077C41.7558 36.6841 42.3695 36.8874 43 36.8874C43.6305 36.8874 44.2442 36.6841 44.75 36.3077C47.1033 34.5336 48.6713 31.9113 49.1205 28.9986L49.2443 29.0399C49.1881 33.0726 48.3648 37.0577 46.8183 40.7825C46.1992 42.2778 45.4676 43.724 44.6297 45.1086L44.25 45.0327V41.0577C44.25 40.7262 44.1183 40.4082 43.8839 40.1738C43.6495 39.9394 43.3316 39.8077 43 39.8077C42.6685 39.8077 42.3506 39.9394 42.1161 40.1738C41.8817 40.4082 41.75 40.7262 41.75 41.0577V45.0817L38.1455 45.9828L33.5591 43.6897C33.4361 43.6284 33.3038 43.588 33.1675 43.5699L33 42.2296V30.6539L36.895 29.096C37.364 31.9709 38.924 34.5541 41.25 36.3077ZM53.2227 72.8172L51.6572 74.3827L47.1758 70.7975L48.8022 68.358L50.0018 67.9582C50.0128 67.9544 50.0232 67.9496 50.0341 67.9455L54.4113 70.4467C54.4016 70.4641 54.391 70.4807 54.3821 70.4986L53.2227 72.8172ZM44.7839 57.2036L47.7921 53.8946C50.409 51.0177 52.5197 47.7184 54.0346 44.1366L51.7982 51.9647C51.7663 52.0763 51.7501 52.1917 51.75 52.3077V61.0964L44.7839 57.2036ZM54.25 52.4827L55.8191 46.991L56.75 48.8528V56.9072L54.25 60.4072V52.4827ZM54.25 30.7241C54.2563 38.6722 51.2934 46.336 45.9424 52.213L42.5436 55.9516L40.0291 54.5464L41.6613 52.9144C47.8017 46.7754 51.3958 38.543 51.7238 29.8663L54.25 30.7086V30.7241ZM34.1272 51.2483L33.53 46.4702L37.441 48.4257C37.7078 48.5591 38.0137 48.5927 38.3032 48.5203L43.0303 47.3385L43.1322 47.3589C42.1527 48.7037 41.0699 49.97 39.8935 51.1464L37.761 53.2789L34.1272 51.2483ZM27.1741 50.2267L39.5313 57.1322L38.2099 59.1143C38.1178 59.2508 38.0536 59.4042 38.0209 59.5657C37.9883 59.7271 37.9879 59.8934 38.0198 60.055C38.0516 60.2166 38.1151 60.3703 38.2066 60.5073C38.2981 60.6443 38.4157 60.7619 38.5527 60.8532C38.6898 60.9446 38.8435 61.008 39.0051 61.0398C39.1668 61.0715 39.3331 61.071 39.4945 61.0383C39.6559 61.0056 39.8093 60.9413 39.9458 60.8491C40.0823 60.7569 40.1992 60.6386 40.2899 60.5011L41.7203 58.3555L43.4777 59.3375L41.9599 61.6143C41.8678 61.7508 41.8036 61.9042 41.7709 62.0657C41.7383 62.2271 41.7379 62.3934 41.7698 62.555C41.8016 62.7166 41.8651 62.8703 41.9566 63.0073C42.0481 63.1443 42.1657 63.2619 42.3027 63.3532C42.4398 63.4446 42.5935 63.508 42.7551 63.5398C42.9168 63.5715 43.0831 63.571 43.2445 63.5383C43.4059 63.5056 43.5593 63.4413 43.6958 63.3491C43.8323 63.2569 43.9492 63.1386 44.0399 63.0011L45.6667 60.5608L49.9966 62.9805L48.1574 65.9375L47.6047 66.1217C47.341 66.2096 47.1141 66.3829 46.9599 66.6143L46.8646 66.7572L36.2032 62.4924L32.6346 58.9238C32.5184 58.8076 32.3805 58.7155 32.2287 58.6527C32.077 58.5899 31.9143 58.5576 31.75 58.5577H28.6008L24.5921 53.5469L27.1741 50.2267ZM54.7678 74.8077L55.1339 74.4416C55.229 74.3466 55.3082 74.2369 55.3683 74.1167L55.9366 72.9805L56.3963 74.8077H54.7678ZM66.3572 74.3936L51.2217 65.7452L52.1816 64.2019L67.4599 72.7399L66.3572 74.3936ZM68.2469 67.5786L69.0438 67.9772L68.4332 70.4196L66.4908 69.3343L68.2469 67.5786ZM61.4077 33.733C62.5114 34.8346 63.2631 36.2392 63.5674 37.7686L65.4875 47.3702L64.2969 59.28L59.0541 65.178L55.3807 63.1253L59.0172 58.0342C59.1686 57.8222 59.25 57.5682 59.25 57.3077V48.5577C59.25 48.3636 59.2048 48.1722 59.118 47.9986L56.75 43.2625V31.4086L57.7389 31.6558C59.1274 32.0031 60.3955 32.721 61.4077 33.733ZM38 16.0577V13.5577H48V16.0577H45.7952L43.5591 14.9397C43.3855 14.8529 43.1941 14.8077 43 14.8077C42.806 14.8077 42.6145 14.8529 42.441 14.9397L40.2049 16.0577H38ZM34.25 11.6827C34.2476 10.9753 34.4435 10.2814 34.8154 9.67963C35.1873 9.07788 35.7203 8.59237 36.3541 8.27815L38.5591 7.17565C38.6793 7.11558 38.789 7.03643 38.8839 6.94128C39.5589 6.26269 40.3617 5.72471 41.246 5.35848C42.1303 4.99224 43.0784 4.80503 44.0355 4.80769H49.2491C49.2312 6.92327 48.9223 9.02633 48.331 11.0577H36.75C36.4185 11.0577 36.1006 11.1894 35.8661 11.4238C35.6317 11.6582 35.5 11.9762 35.5 12.3077V14.5046C35.1051 14.1485 34.7896 13.7131 34.5742 13.2269C34.3588 12.7407 34.2484 12.2145 34.25 11.6827ZM40.5 18.5577C40.6941 18.5577 40.8855 18.5125 41.0591 18.4257L43 17.4552L44.941 18.4257C45.1145 18.5125 45.306 18.5577 45.5 18.5577H46.75V20.4327L44.25 22.3077H41.75L39.25 20.4327V18.5577H40.5ZM40.5835 24.5577C40.7998 24.72 41.063 24.8077 41.3335 24.8077H44.6669C44.9374 24.8077 45.2005 24.72 45.4169 24.5577L45.5 24.4952V24.8077C45.5 25.0018 45.5452 25.1932 45.6321 25.3667L46.7414 27.5855C46.6973 28.8954 46.3608 30.1788 45.7567 31.3419C45.1527 32.5049 44.2962 33.5183 43.25 34.3077C43.1778 34.3614 43.0901 34.3904 43 34.3904C42.91 34.3904 42.8223 34.3614 42.75 34.3077C41.7039 33.5184 40.8474 32.5052 40.2433 31.3423C39.6391 30.1793 39.3026 28.896 39.2583 27.5863L40.3677 25.3675C40.4548 25.1938 40.5001 25.0021 40.5 24.8077V24.4952L40.5835 24.5577ZM20.2261 44.3389C20.3596 44.1723 20.448 43.9742 20.483 43.7636L21.2705 39.0385C21.6366 36.8408 22.7596 34.8402 24.4451 33.3831C26.1306 31.9261 28.2725 31.1041 30.5 31.0596V41.8788L26.1628 47.455C26.0076 47.5372 25.8716 47.6514 25.7638 47.7901C25.6561 47.9288 25.579 48.0888 25.5378 48.2596L22.0139 52.7908C21.8415 53.0125 21.7488 53.2859 21.7507 53.5667C21.7527 53.8476 21.8491 54.1196 22.0246 54.3389L27.0246 60.5889C27.1416 60.7352 27.2901 60.8532 27.4589 60.9344C27.6278 61.0155 27.8127 61.0576 28 61.0577H31.2324L34.0699 63.8953L33.3022 66.1983L27.5982 67.1491L26.6858 64.4124C26.6054 64.1712 26.4534 63.9602 26.25 63.8077L16.6507 56.6082L15.5749 50.1527L20.2261 44.3389Z" fill="white"/>
</svg>
